<?xml version="1.0" standalone="no"?>
<!DOCTYPE svg PUBLIC "-//W3C//DTD SVG 20010904//EN"
 "http://www.w3.org/TR/2001/REC-SVG-20010904/DTD/svg10.dtd">
<svg version="1.0" xmlns="http://www.w3.org/2000/svg"
 width="480.000000pt" height="480.000000pt" viewBox="0 0 480.000000 480.000000"
 preserveAspectRatio="xMidYMid meet">

<g transform="translate(0.000000,480.000000) scale(0.100000,-0.100000)"
fill="#000000" stroke="none">
<path d="M3300 3900 l0 -100 100 0 100 0 0 100 0 100 -100 0 -100 0 0 -100z"/>
<path d="M2900 3700 l0 -100 100 0 100 0 0 100 0 100 -100 0 -100 0 0 -100z"/>
<path d="M2500 3500 l0 -100 100 0 100 0 0 100 0 100 -100 0 -100 0 0 -100z"/>
<path d="M2100 3100 l0 -100 -100 0 -100 0 0 -100 0 -100 100 0 100 0 0 100 0
100 100 0 100 0 0 100 0 100 -100 0 -100 0 0 -100z"/>
<path d="M1500 2500 l0 -100 -100 0 -100 0 0 -100 0 -100 100 0 100 0 0 100 0
100 100 0 100 0 0 100 0 100 -100 0 -100 0 0 -100z"/>
<path d="M1100 1900 l0 -100 -100 0 -100 0 0 -300 0 -300 -100 0 -100 0 0
-300 0 -300 100 0 100 0 0 300 0 300 100 0 100 0 0 300 0 300 100 0 100 0 0
100 0 100 -100 0 -100 0 0 -100z"/>
</g>
</svg>
